<svg xmlns="http://www.w3.org/2000/svg" width="40.099" height="35.631" viewBox="0 0 40.099 35.631"><defs><style>.a{fill:#eee;}</style></defs><g transform="translate(0 0)"><path class="a" d="M40.085,39.387c-.285-6.044-4.963-10.813-10.554-10.858h-.081c-5.166,0-8.046,3.792-9.4,6.351-1.354-2.56-4.233-6.351-9.4-6.351h-.081C4.978,28.574.3,33.343.015,39.387-.335,46.8,5.578,51.772,14.411,59.3c1.529,1.3,3.156,2.689,4.866,4.185l.773.677.773-.677c1.709-1.5,3.336-2.882,4.866-4.185C34.521,51.772,40.435,46.8,40.085,39.387Z" transform="translate(0 -28.529)"/></g></svg>