<svg xmlns="http://www.w3.org/2000/svg" width="20" height="20" viewBox="0 0 20 20"><defs><style>.a{opacity:0.5;}</style></defs><g class="a"><path d="M10,0A10,10,0,1,0,20,10,9.994,9.994,0,0,0,10,0Zm0,18.438A8.438,8.438,0,1,1,18.438,10,8.433,8.433,0,0,1,10,18.438Z"/><g transform="translate(9.214 8.347)"><path d="M236.786,214.33a.786.786,0,0,0-.786.786v5.062a.786.786,0,1,0,1.572,0v-5.062A.786.786,0,0,0,236.786,214.33Z" transform="translate(-236 -214.33)"/></g><g transform="translate(8.939 5.302)"><circle cx="1.061" cy="1.061" r="1.061"/></g></g></svg>